<?xml version="1.0" standalone="no"?>
<!DOCTYPE svg PUBLIC "-//W3C//DTD SVG 20010904//EN"
 "http://www.w3.org/TR/2001/REC-SVG-20010904/DTD/svg10.dtd">
<svg version="1.0" xmlns="http://www.w3.org/2000/svg"
 width="1626.000000pt" height="1626.000000pt" viewBox="0 0 1626.000000 1626.000000"
 preserveAspectRatio="xMidYMid meet">
<metadata>
Created by potrace 1.11, written by Peter Selinger 2001-2013
</metadata>
<g transform="translate(0.000000,1626.000000) scale(0.100000,-0.100000)"
fill="#000000" stroke="none">
<path d="M6405 16206 c-285 -55 -521 -189 -746 -424 -191 -199 -348 -482 -423
-761 -14 -51 -27 -95 -29 -98 -2 -2 -42 21 -89 50 -290 182 -641 238 -968 156
-492 -125 -901 -553 -1070 -1120 -105 -356 -115 -760 -26 -1112 13 -51 23 -92
22 -93 0 -1 -37 3 -81 7 -103 11 -276 -4 -396 -35 -517 -132 -940 -603 -1093
-1215 -137 -545 -53 -1133 226 -1588 29 -48 48 -88 42 -90 -5 -2 -44 -23 -85
-46 -253 -144 -495 -410 -643 -706 -151 -301 -216 -591 -216 -966 0 -375 65
-665 216 -966 148 -296 390 -562 643 -706 41 -23 80 -44 85 -46 6 -2 -13 -42
-42 -90 -279 -455 -363 -1043 -226 -1588 153 -612 576 -1083 1093 -1215 120
-31 293 -46 396 -35 44 4 81 8 81 7 1 -1 -9 -42 -22 -93 -89 -352 -79 -756 26
-1112 169 -567 578 -995 1070 -1120 327 -82 678 -26 968 156 47 29 87 52 89
50 2 -3 15 -47 29 -98 75 -279 232 -562 423 -761 202 -211 402 -334 661 -406
90 -25 107 -26 330 -26 226 0 239 1 335 27 195 54 418 182 574 331 270 259
476 684 516 1066 5 41 18 86 36 122 l29 57 -25 17 -25 16 0 179 0 179 75 0 75
0 0 185 0 185 -75 0 -75 0 0 179 0 179 26 16 25 17 -25 46 -26 46 1 841 0 841
89 175 89 175 0 -1013 1 -1014 -40 -45 c-92 -105 -91 -262 2 -368 l38 -43 0
-436 c0 -479 7 -564 60 -773 117 -453 396 -838 755 -1041 104 -58 237 -108
352 -131 126 -26 385 -29 516 -6 171 30 341 100 510 212 112 74 320 287 406
417 119 179 210 379 260 570 12 44 23 81 25 83 2 2 35 -16 72 -40 212 -137
422 -199 674 -200 325 -2 605 106 866 331 497 430 720 1227 540 1935 -13 51
-23 92 -22 93 0 1 37 -3 81 -7 97 -11 268 3 381 30 220 53 430 172 611 345
627 598 747 1677 273 2461 -29 48 -50 87 -49 89 2 1 36 20 74 40 425 230 752
729 850 1300 21 125 21 637 0 762 -98 571 -425 1070 -850 1300 -38 20 -72 39
-74 40 -1 2 20 41 49 89 422 699 377 1654 -107 2280 -142 184 -357 359 -539
440 -43 20 -92 42 -109 50 -116 54 -437 87 -574 59 -19 -4 -22 -2 -16 13 9 23
56 221 60 253 21 165 27 343 16 481 -48 647 -357 1181 -836 1452 -130 73 -337
146 -440 155 -123 11 -329 4 -405 -12 -41 -9 -93 -19 -115 -22 -22 -3 -42 -9
-45 -13 -3 -4 -27 -15 -55 -25 -72 -27 -160 -72 -239 -123 -37 -24 -70 -42
-72 -40 -2 2 -13 39 -25 83 -61 235 -189 489 -340 680 -67 84 -205 218 -292
281 -39 29 -81 60 -92 69 -68 53 -315 145 -452 169 -131 23 -390 20 -516 -6
-248 -50 -458 -169 -662 -373 -232 -232 -398 -552 -468 -902 l-23 -113 -62
-45 c-34 -25 -62 -50 -62 -54 0 -5 6 -17 14 -27 13 -18 15 -17 54 13 22 18 41
32 43 32 2 0 3 -68 1 -150 -2 -103 -6 -148 -14 -144 -12 8 -28 -14 -28 -38 0
-11 8 -18 20 -18 16 0 20 -7 20 -31 0 -24 -4 -30 -15 -25 -8 3 -21 8 -28 11
-8 4 -18 -5 -25 -20 -11 -23 -9 -26 28 -45 l40 -20 0 -105 c0 -58 -2 -105 -3
-105 -2 0 -34 38 -71 85 -59 74 -70 84 -87 75 -33 -18 -23 27 15 72 87 102 88
264 1 365 -31 36 -35 49 -50 158 -68 495 -306 919 -665 1184 -109 81 -298 173
-425 207 -90 25 -120 27 -305 30 -141 2 -227 -1 -275 -10z m1865 -2800 l0
-532 -82 -45 c-46 -24 -86 -45 -90 -47 -5 -2 -8 308 -8 688 l0 692 90 -112 90
-112 0 -532z m-90 -1568 l-90 -173 3 524 2 523 85 47 85 47 3 -397 2 -398 -90
-173z m90 -420 l-1 -463 -87 -63 -87 -62 -3 347 -3 348 88 178 c48 97 89 177
90 177 2 0 3 -208 3 -462z m0 -813 l0 -275 -90 0 -90 0 0 213 0 213 88 62 c48
34 88 62 90 62 1 0 2 -124 2 -275z m0 -765 c0 -242 -2 -440 -4 -440 -2 0 -43
45 -90 99 l-86 100 0 340 0 341 90 0 90 0 0 -440z m-86 -439 l86 -100 0 -435
c0 -240 -3 -436 -7 -436 -5 0 -44 9 -88 18 l-80 18 -3 517 c-1 284 0 517 2
517 2 0 43 -45 90 -99z m-4 -1011 c19 -4 47 -11 63 -14 l27 -6 0 -230 0 -229
-81 -26 c-44 -14 -84 -25 -90 -25 -5 0 -9 108 -9 275 l0 275 28 -6 c15 -3 43
-10 62 -14z m90 -1440 c0 -529 -4 -900 -9 -900 -5 0 -44 15 -88 33 l-78 34 -3
839 -2 840 82 26 c46 14 86 26 91 27 4 0 7 -404 7 -899z m-85 -934 l80 -33 0
-79 0 -79 -55 -7 c-30 -4 -70 -9 -87 -12 l-33 -5 0 125 c0 68 3 124 8 124 4 0
43 -15 87 -34z m84 -568 l0 -323 -89 -175 -89 -175 0 486 -1 487 78 9 c42 6
83 11 90 12 9 1 12 -69 11 -321z"/>
<path d="M14855 1512 c-17 -11 -12 -64 7 -76 21 -13 28 -6 30 25 2 57 -8 72
-37 51z"/>
<path d="M14372 988 c-15 -15 4 -49 23 -42 19 8 20 40 1 47 -7 3 -18 1 -24 -5z"/>
</g>
</svg>
